<svg xmlns="http://www.w3.org/2000/svg" viewBox="0 0 420 420" width="420" height="420" role="img" aria-label="Themes by share of topical mass, the broad subject inside and the label each was stated as outside"><style>/*
 * The wedge rules for a sunburst that travels as a file. A markdown reader renders an image and not a
 * page, so the picture cannot reach the page's stylesheet and carries its own. Each wedge states its own
 * two colours as custom properties; these rules choose between them by the reader's colour scheme.
 */
.wedge path { fill:var(--c); stroke:#ffffff; stroke-width:1.5; }
.wedge-label { font-family:ui-sans-serif,system-ui,-apple-system,'Segoe UI',Roboto,sans-serif;
  font-size:10.5px; fill:#ffffff; text-anchor:middle; paint-order:stroke; }
@media (prefers-color-scheme: dark) {
  .wedge path { fill:var(--cd); stroke:#0e1216; }
}
</style><g class="wedge" style="--c:#2a78d6;--cd:#3987e5" opacity="1.00"><path d="M 210.00 94.00 A 116.00 116.00 0 1 1 196.01 94.85 L 203.01 152.42 A 58.00 58.00 0 1 0 210.00 152.00 Z"><title>sciences — 98.1% of what the chart draws</title></path><text class="wedge-label" x="215.25" y="296.84" transform="rotate(-3.46 215.25 296.84)">sciences</text></g><g class="wedge" style="--c:#2a78d6;--cd:#3987e5" opacity="0.90"><path d="M 210.00 28.00 A 182.00 182.00 0 1 1 32.65 250.87 L 92.09 237.17 A 121.00 121.00 0 1 0 210.00 89.00 Z"><title>linguistics — 71.4% of what the chart draws</title></path><text class="wedge-label" x="328.55" y="304.33" transform="rotate(-51.49 328.55 304.33)">linguistics</text></g><g class="wedge" style="--c:#2a78d6;--cd:#3987e5" opacity="0.80"><path d="M 32.65 250.87 A 182.00 182.00 0 0 1 188.05 29.33 L 195.41 89.88 A 121.00 121.00 0 0 0 92.09 237.17 Z"><title>grammar — 26.7% of what the chart draws</title></path><text class="wedge-label" x="85.97" y="123.00" transform="rotate(305.05 85.97 123.00)">grammar</text></g><g class="wedge" style="--c:#eb6834;--cd:#d95926" opacity="1.00"><path d="M 196.01 94.85 A 116.00 116.00 0 0 1 210.00 94.00 L 210.00 152.00 A 58.00 58.00 0 0 0 203.01 152.42 Z"><title>natural-sciences — 1.9% of what the chart draws</title></path><g></g></g><g class="wedge" style="--c:#eb6834;--cd:#d95926" opacity="0.90"><path d="M 188.05 29.33 A 182.00 182.00 0 0 1 210.00 28.00 L 210.00 89.00 A 121.00 121.00 0 0 0 195.41 89.88 Z"><title>computing — 1.9% of what the chart draws</title></path><g></g></g></svg>